<svg aria-hidden="true" style="position: absolute; width: 0; height: 0; overflow: hidden;" version="1.1" xmlns="http://www.w3.org/2000/svg" xmlns:xlink="http://www.w3.org/1999/xlink">
<defs>
<symbol id="icon-bicycle" viewBox="0 0 32 32">
<path stroke-linejoin="miter" stroke-linecap="butt" stroke-miterlimit="4" stroke-width="1" d="M14 24c0 3.314-2.686 6-6 6s-6-2.686-6-6c0-3.314 2.686-6 6-6s6 2.686 6 6z"></path>
<path stroke-linejoin="miter" stroke-linecap="butt" stroke-miterlimit="4" stroke-width="1" d="M30 24c0 3.314-2.686 6-6 6s-6-2.686-6-6c0-3.314 2.686-6 6-6s6 2.686 6 6z"></path>
<path stroke-linejoin="miter" stroke-linecap="butt" stroke-miterlimit="4" stroke-width="1" d="M8 24l8-12 4 4 4 8"></path>
<path stroke-linejoin="miter" stroke-linecap="butt" stroke-miterlimit="4" stroke-width="1" d="M16 12l-2-4h6"></path>
</symbol>
<symbol id="icon-arrow-right" viewBox="0 0 43 32">
<path d="M42.079 14.133l-17.143-13.333c-1.371-1.067-3.429-1.067-4.8 0s-1.371 2.667 0 3.733l11.314 8.8h-26.057c-2.057 0-3.429 1.067-3.429 2.667s1.371 2.667 3.429 2.667h26.057l-11.314 8.8c-1.371 1.067-1.371 2.666 0 3.733s3.429 1.067 4.8 0l17.143-13.333c1.371-0.8 1.371-2.667 0-3.733z"></path>
</symbol>
<symbol id="icon-burger-menu" viewBox="0 0 48 32">
<path d="M46.925 14.471h-43.549c-0.587 0-1.179-0.005-1.766 0h-0.077c-0.801 0-1.567 0.704-1.531 1.529 0.037 0.83 0.674 1.529 1.531 1.529h43.551c0.587 0 1.179 0.005 1.766 0h0.077c0.801 0 1.567-0.704 1.531-1.529-0.041-0.83-0.674-1.529-1.531-1.529zM46.925 0.002h-43.549c-0.587 0-1.179-0.005-1.766 0h-0.077c-0.801 0-1.567 0.704-1.531 1.529 0.037 0.831 0.674 1.529 1.531 1.529h43.551c0.587 0 1.179 0.006 1.766 0h0.077c0.801 0 1.567-0.703 1.531-1.529-0.041-0.83-0.674-1.529-1.531-1.529zM46.925 28.941h-43.549c-0.587 0-1.179-0.006-1.766 0h-0.077c-0.801 0-1.567 0.703-1.531 1.529 0.037 0.83 0.674 1.529 1.531 1.529h43.551c0.587 0 1.179 0.005 1.766 0h0.077c0.801 0 1.567-0.704 1.531-1.529-0.041-0.831-0.674-1.529-1.531-1.529z"></path>
</symbol>
<symbol id="icon-cart" viewBox="0 0 35 32">
<path d="M0 1.778c0-0.982 0.779-1.778 1.739-1.778h3.478c0.81 0 1.512 0.571 1.695 1.377l4.906 21.734h14.65l4.348-17.777h-13.425c-0.96 0-1.739-0.797-1.739-1.778s0.779-1.777 1.739-1.777h15.652c0.536 0 1.041 0.252 1.37 0.683 0.23 0.3 0.369 0.681 0.369 1.094 0 0.153-0.019 0.302-0.055 0.444l0.003-0.013-5.217 21.333c-0.193 0.792-0.889 1.347-1.687 1.347h-17.391c-0.81 0-1.512-0.571-1.695-1.377l-4.906-21.734h-2.095c-0.96 0.001-1.739-0.795-1.739-1.777zM13.913 3.555c0 0.982-0.779 1.778-1.739 1.778s-1.739-0.796-1.739-1.778 0.779-1.777 1.739-1.777 1.739 0.797 1.739 1.777zM20.87 10.666c0-0.982-0.779-1.777-1.739-1.777s-1.739 0.797-1.739 1.778v2.819l-0.509-0.521c-0.312-0.321-0.748-0.521-1.23-0.521s-0.918 0.199-1.229 0.52l-0 0c-0.315 0.325-0.509 0.768-0.509 1.257s0.194 0.932 0.51 1.258l-0-0 3.478 3.556c0.68 0.694 1.781 0.694 2.46 0l3.478-3.555c0.315-0.325 0.51-0.768 0.51-1.257s-0.194-0.933-0.51-1.258l0 0c-0.312-0.321-0.748-0.521-1.23-0.521s-0.918 0.199-1.23 0.52l-0 0-0.509 0.521v-2.819zM12.174 32c0.96 0 1.739-0.796 1.739-1.778s-0.779-1.777-1.739-1.777-1.739 0.796-1.739 1.777c0 0.982 0.779 1.778 1.739 1.778zM27.826 30.222c0 0.982-0.779 1.778-1.739 1.778s-1.739-0.796-1.739-1.778c0-0.982 0.779-1.777 1.739-1.777s1.739 0.796 1.739 1.777z"></path>
</symbol>
<symbol id="icon-dollar" viewBox="0 0 31 32">
<path d="M16.010 7.422c-4.811 0-8.7 3.889-8.7 8.7s3.889 8.701 8.7 8.701 8.701-3.889 8.701-8.701c0-4.811-3.889-8.7-8.701-8.7zM18.251 19.22c-0.461 0.396-1.054 0.593-1.78 0.659v0.792h-0.725v-0.792c-1.042-0.139-1.964-0.564-2.711-1.193l0.008 0.007 0.791-0.989c0.593 0.528 1.252 0.857 1.912 0.989v-2.109c-0.857-0.198-1.45-0.461-1.846-0.791-0.33-0.33-0.527-0.857-0.527-1.45 0-0.659 0.198-1.121 0.659-1.581 0.461-0.396 0.989-0.593 1.714-0.66v-0.527h0.725v0.593c0.875 0.071 1.665 0.382 2.32 0.865l-0.012-0.009-0.725 0.989c-0.461-0.33-0.989-0.527-1.582-0.659v2.043c0.857 0.198 1.45 0.461 1.845 0.791s0.593 0.857 0.593 1.45c0.066 0.659-0.198 1.186-0.659 1.581z"></path>
<path d="M14.692 14.211c0 0.264 0.065 0.461 0.197 0.593s0.396 0.264 0.857 0.396v-1.912c-0.33 0-0.593 0.132-0.792 0.264-0.131 0.198-0.263 0.395-0.263 0.659zM16.471 16.715v1.977c0.33-0.066 0.659-0.132 0.857-0.33s0.33-0.395 0.33-0.659-0.066-0.461-0.264-0.593c-0.197-0.132-0.461-0.264-0.922-0.395zM3.091 15.331c0.198-3.23 1.581-6.261 3.889-8.502 5.009-4.877 12.985-4.877 17.994-0.066l-1.318-0.198c-0.725-0.066-1.318 0.396-1.45 1.055-0.066 0.659 0.396 1.318 1.055 1.45l4.482 0.593h0.198c0.264 0 0.527-0.066 0.79-0.264 0.264-0.197 0.461-0.527 0.461-0.856l0.593-4.482c0.066-0.725-0.395-1.318-1.055-1.45-0.724-0.066-1.318 0.396-1.45 1.055l-0.198 1.516c-2.9-2.966-6.723-4.614-10.875-4.68-4.087 0.066-8.042 1.648-11.007 4.548-2.768 2.703-4.416 6.328-4.68 10.15-0.066 0.725 0.461 1.319 1.186 1.319h0.066c0.725 0 1.252-0.528 1.318-1.187zM30.312 15.727c-0.659-0.066-1.318 0.461-1.318 1.186-0.198 3.23-1.582 6.262-3.889 8.503-5.075 4.877-13.050 4.877-18.060 0l1.45 0.131c0.039 0.004 0.083 0.007 0.129 0.007 0.65 0 1.185-0.491 1.255-1.121l0.001-0.006c0.004-0.038 0.007-0.083 0.007-0.128 0-0.65-0.49-1.185-1.121-1.255l-0.006-0.001-4.614-0.461c-0.33-0.066-0.659 0.066-0.922 0.264s-0.396 0.527-0.461 0.857l-0.461 4.482c-0.004 0.039-0.007 0.083-0.007 0.129 0 0.65 0.49 1.185 1.121 1.255l0.006 0.001h0.132c0.659 0 1.186-0.461 1.252-1.121l0.132-1.45c3.032 3.098 7.053 4.614 11.007 4.614 0.001 0 0.003 0 0.004 0 4.197 0 8.007-1.658 10.81-4.356l-0.005 0.005c2.768-2.702 4.416-6.327 4.68-10.15 0.004-0.038 0.006-0.083 0.006-0.128 0-0.65-0.49-1.185-1.121-1.256l-0.006-0.001z"></path>
</symbol>
<symbol id="icon-mail" viewBox="0 0 45 32">
<path d="M13.685 16l-13.685 10.037v-20.075l13.685 10.037zM31.115 16l13.685 10.037v-20.075l-13.685 10.037zM29.114 17.472l-6.118 4.484c-0.165 0.122-0.371 0.196-0.595 0.198h-0.001c-0.225-0.002-0.432-0.076-0.6-0.2l0.003 0.002-6.114-4.484-15.639 11.465c0.269 1.734 1.613 3.063 3.23 3.063h38.242c1.617 0 2.963-1.323 3.23-3.066l-0.864-0.627-14.773-10.837zM22.4 19.452l22.351-16.386c-0.267-1.743-1.613-3.066-3.23-3.066h-38.242c-1.617 0-2.961 1.329-3.23 3.066l0.858 0.627 21.493 15.759z"></path>
</symbol>
<symbol id="icon-paper-1" viewBox="0 0 26 32">
<path d="M17.6 9.6h7.040l-8.64-8.64v7.040c0 0.96 0.64 1.6 1.6 1.6zM17.6 12.8c-2.72 0-4.8-2.080-4.8-4.8v-8h-8c-2.72 0-4.8 2.080-4.8 4.8v22.4c0 2.72 2.080 4.8 4.8 4.8h16c2.72 0 4.8-2.080 4.8-4.8v-14.4h-8zM8 9.6h1.6c0.96 0 1.6 0.64 1.6 1.6s-0.64 1.6-1.6 1.6h-1.6c-0.96 0-1.6-0.64-1.6-1.6s0.64-1.6 1.6-1.6zM17.6 25.6h-9.6c-0.96 0-1.6-0.64-1.6-1.6s0.64-1.6 1.6-1.6h9.6c0.96 0 1.6 0.64 1.6 1.6s-0.64 1.6-1.6 1.6zM17.6 19.2h-9.6c-0.96 0-1.6-0.64-1.6-1.6s0.64-1.6 1.6-1.6h9.6c0.96 0 1.6 0.64 1.6 1.6s-0.64 1.6-1.6 1.6z"></path>
</symbol>
<symbol id="icon-paper-2" viewBox="0 0 28 32">
<path d="M5.197 22.047h-5.202l6.643 6.689v-5.223c0-0 0-0 0-0.001 0-0.801-0.642-1.452-1.44-1.466l-0.001-0z"></path>
<path d="M20.104 0.164h-18.668c-0.798 0.012-1.441 0.662-1.441 1.462 0 0.002 0 0.003 0 0.005v-0 19.046h5.203c1.568 0.003 2.839 1.273 2.841 2.841v5.218h6.367c-0.349-0.836-0.552-1.806-0.552-2.825 0-0.006 0-0.012 0-0.018v0.001c0.020-4.218 3.444-7.63 7.665-7.63h0.072v-16.634c0-0 0-0 0-0.001 0-0.81-0.656-1.466-1.466-1.466-0.007 0-0.014 0-0.021 0h0.001zM18.331 16.287h-15.122c-0.017 0.001-0.036 0.002-0.055 0.002-0.381 0-0.69-0.309-0.69-0.69s0.309-0.69 0.69-0.69c0.019 0 0.039 0.001 0.058 0.002l-0.002-0h15.127c0.018-0.002 0.040-0.003 0.062-0.003 0.381 0 0.69 0.309 0.69 0.69s-0.309 0.69-0.69 0.69c-0.022 0-0.043-0.001-0.064-0.003l0.003 0h-0.006zM18.331 12.163h-15.122c-0.017 0.001-0.036 0.002-0.055 0.002-0.381 0-0.69-0.309-0.69-0.69s0.309-0.69 0.69-0.69c0.019 0 0.039 0.001 0.058 0.002l-0.002-0h15.127c0.017-0.001 0.036-0.002 0.055-0.002 0.381 0 0.69 0.309 0.69 0.69s-0.309 0.69-0.69 0.69c-0.019 0-0.039-0.001-0.058-0.002l0.003 0h-0.006zM18.331 8.034h-15.122c-0.017 0.001-0.036 0.002-0.055 0.002-0.381 0-0.69-0.309-0.69-0.69s0.309-0.69 0.69-0.69c0.019 0 0.039 0.001 0.058 0.002l-0.002-0h15.127c0.018-0.002 0.040-0.003 0.062-0.003 0.381 0 0.69 0.309 0.69 0.69s-0.309 0.69-0.69 0.69c-0.022 0-0.043-0.001-0.064-0.003l0.003 0h-0.006zM18.331 3.91h-15.122c-0.017 0.001-0.036 0.002-0.055 0.002-0.381 0-0.69-0.309-0.69-0.69s0.309-0.69 0.69-0.69c0.019 0 0.039 0.001 0.058 0.002l-0.002-0h15.127c0.017-0.001 0.036-0.002 0.055-0.002 0.381 0 0.69 0.309 0.69 0.69s-0.309 0.69-0.69 0.69c-0.019 0-0.039-0.001-0.058-0.002l0.003 0h-0.006z"></path>
<path d="M21.576 19.798h-0.072c-3.374 0-6.112 2.725-6.132 6.095v0.002c0 0.004 0 0.008 0 0.013 0 1.036 0.263 2.010 0.726 2.86l-0.016-0.031c1.043 1.956 3.070 3.266 5.403 3.266 3.37 0 6.102-2.732 6.102-6.102 0-3.338-2.68-6.050-6.006-6.101l-0.005-0zM19.389 28.996l-2.019-1.988c-0.137-0.147-0.221-0.344-0.221-0.562 0-0.455 0.369-0.824 0.824-0.824 0.217 0 0.415 0.084 0.562 0.222l-0-0 1.411 1.41 4.482-4.472c0.15-0.15 0.356-0.242 0.585-0.242s0.435 0.092 0.585 0.242v0c0.148 0.149 0.24 0.355 0.24 0.583s-0.092 0.433-0.24 0.583l-5.059 5.059c-0.149 0.143-0.351 0.232-0.575 0.232-0.226 0-0.431-0.091-0.58-0.238l0 0 0.005-0.004z"></path>
</symbol>
<symbol id="icon-phone" viewBox="0 0 32 32">
<path d="M30.539 23.219c-1.327-1.364-5.099-3.919-7.572-3.919-0.573 0-1.072 0.127-1.48 0.391-1.209 0.773-2.173 1.373-2.637 1.373-0.253 0-0.527-0.227-1.127-0.747l-0.1-0.089c-1.664-1.447-2.019-1.819-2.664-2.492l-0.163-0.173c-0.119-0.117-0.219-0.227-0.319-0.327-0.564-0.581-0.973-1-2.417-2.636l-0.064-0.072c-0.691-0.783-1.145-1.292-1.173-1.664-0.027-0.364 0.292-0.955 1.1-2.055 0.983-1.328 1.019-2.964 0.119-4.864-0.719-1.5-1.891-2.936-2.927-4.2l-0.091-0.109c-0.891-1.089-1.928-1.636-3.081-1.636-1.283 0-2.347 0.691-2.909 1.053-0.045 0.028-0.091 0.065-0.136 0.093-1.264 0.8-2.181 1.899-2.527 3.017-0.519 1.681-0.864 3.863 1.617 8.4 2.145 3.927 4.091 6.563 7.181 9.736 2.908 2.981 4.2 3.947 7.089 6.036 3.219 2.328 6.308 3.664 8.472 3.664 2.009 0 3.591 0 5.845-2.719 2.363-2.853 1.381-4.6-0.037-6.063z"></path>
</symbol>
<symbol id="icon-point" viewBox="0 0 26 32">
<path d="M12.8 0c-7.066 0.008-12.792 5.734-12.8 12.799v0.001c0 5.208 3.781 9.533 7.786 14.11 1.267 1.45 2.579 2.949 3.747 4.466 0.295 0.381 0.753 0.623 1.267 0.623s0.972-0.243 1.264-0.62l0.003-0.004c1.168-1.517 2.48-3.016 3.747-4.466 4.005-4.578 7.786-8.902 7.786-14.11-0.008-7.066-5.734-12.792-12.799-12.8h-0.001zM12.8 17.6c-2.651 0-4.8-2.149-4.8-4.8s2.149-4.8 4.8-4.8v0c2.651 0 4.8 2.149 4.8 4.8s-2.149 4.8-4.8 4.8v0z"></path>
</symbol>
<symbol id="icon-x-close" viewBox="0 0 32 32">
<path stroke-linejoin="round" stroke-linecap="round" stroke-miterlimit="4" stroke-width="2.6667" d="M24 8l-16 16M8 8l16 16"></path>
</symbol>
</defs>
</svg>
